# xmcd
#
# Track frame offsets: 
#        150
#        11048
#        24117
#        38035
#        49070
#        54808
#        72365
#        86785
#        102962
#        116714
#        124803
#
# Disc length: 1887 seconds
#
# Revision: 0
# Processed by: cddbd v1.5.2PL0 Copyright (c) Steve Scherf et al.
# Submitted via: ExactAudioCopy v0.95b3
#
DISCID=89075d0b
DTITLE=Dr. Hook  - Belly Up!
DYEAR=1900
DGENRE=
TTITLE0=Acapulco Goldie
TTITLE1=Penicillin Penny
TTITLE2=Life Ain't Easy
TTITLE3=When Lily Was Queen
TTITLE4=Monterey Jack
TTITLE5=You Ain't Got The Right
TTITLE6=Put A Little Bit On Me
TTITLE7=Ballad Of...
TTITLE8=Roland The Roadie and Gertrude The Groupie
TTITLE9=Come On In
TTITLE10=The Wonderful Soup Stone
EXTD=
EXTT0=
EXTT1=
EXTT2=
EXTT3=
EXTT4=
EXTT5=
EXTT6=
EXTT7=
EXTT8=
EXTT9=
EXTT10=
PLAYORDER=
